<svg width="29" height="29" fill="none" xmlns="http://www.w3.org/2000/svg"><path d="M13.293 18.558h-.062a1.147 1.147 0 01-1.146-1.147 1.208 1.208 0 00-2.417 0 3.563 3.563 0 003.563 3.563h.062v1.209a1.208 1.208 0 002.417 0v-1.209a3.625 3.625 0 100-7.25v-2.417h.026c.653 0 1.182.53 1.182 1.182a1.208 1.208 0 102.417 0 3.598 3.598 0 00-3.599-3.598h-.026V7.682a1.208 1.208 0 10-2.417 0v1.209a3.625 3.625 0 100 7.25v2.417zm2.417 0V16.14a1.208 1.208 0 110 2.417zm-2.417-7.25v2.416a1.209 1.209 0 010-2.417zm1.208 15.708c-6.673 0-12.083-5.41-12.083-12.083 0-6.674 5.41-12.084 12.083-12.084 6.674 0 12.084 5.41 12.084 12.083 0 6.674-5.41 12.084-12.084 12.084z" fill="#C39F7B"/></svg>