<svg width="29" height="29" fill="none" xmlns="http://www.w3.org/2000/svg"><path d="M22.958 4.833H21.75V2.416h-2.417v2.417H9.667V2.416H7.25v2.417H6.042A2.406 2.406 0 003.637 7.25l-.012 16.916a2.417 2.417 0 002.417 2.417h16.916a2.424 2.424 0 002.417-2.416V7.25a2.424 2.424 0 00-2.417-2.417zm0 19.334H6.042V12.082h16.916v12.083zm-12.083-7.25H8.458V14.5h2.417v2.416zm4.833 0h-2.416V14.5h2.416v2.416zm4.834 0h-2.417V14.5h2.417v2.416zm-9.667 4.833H8.458v-2.417h2.417v2.417zm4.833 0h-2.416v-2.417h2.416v2.417zm4.834 0h-2.417v-2.417h2.417v2.417z" fill="#C39F7B"/></svg>