<svg width="34" height="34" fill="none" xmlns="http://www.w3.org/2000/svg"><path d="M17 11.05V3.4H9.35A2.55 2.55 0 006.8 5.95v22.1a2.55 2.55 0 002.55 2.55h15.3a2.55 2.55 0 002.55-2.55V13.6h-7.65A2.55 2.55 0 0117 11.05zm-6.8 6.8a.85.85 0 111.7 0 .85.85 0 01-1.7 0zm0 3.4a.85.85 0 111.7 0 .85.85 0 01-1.7 0zm0 3.4a.85.85 0 111.7 0 .85.85 0 01-1.7 0zm3.4-6.8a.85.85 0 01.85-.85h8.5a.85.85 0 010 1.7h-8.5a.85.85 0 01-.85-.85zm0 3.4a.85.85 0 01.85-.85h8.5a.85.85 0 010 1.7h-8.5a.85.85 0 01-.85-.85zm0 3.4a.85.85 0 01.85-.85h8.5a.85.85 0 010 1.7h-8.5a.85.85 0 01-.85-.85zm5.1-13.6V3.825l8.075 8.075H19.55a.85.85 0 01-.85-.85z" fill="#fff"/></svg>