<svg width="136" height="23" fill="none" xmlns="http://www.w3.org/2000/svg"><g clip-path="url(#clip0_159_55)" fill="#fff"><path d="M4.057 18.46a.698.698 0 01-.086-.343.744.744 0 00-.201-.456.645.645 0 00-.43-.202c-.657-.033-1.602-.092-2.394-.092 0 0-2.129.182 0 2.477 0 0 2.777 3.147 13.162 3.147 0 0 13.208 0 13.208-5.047 0 0 1.962-4.488-15.362-5.315 0 0-7.897-.463-6.94-2.991 0 0-.143-2.633 8.23-2.633 0 0 5.617.498 7.898 1.496.73.692.25 1.791.564 1.791h3.355c.5 0 1.457-.37.724-1.626 0 0-1.196-3.406-12.874-3.406 0 0-10.721-.257-11.773 4.8 0-.01-.192 4.643 10.912 4.643 0 0 10.122.169 11.006 3.456 0 0 .767 3.353-9.363 3.353-.002-.006-6.333.51-9.636-3.052zm117.928-4.872c0-9.546-17.389-9.01-17.389-9.01-17.912 0-17.912 9.01-17.912 9.01 0 9.675 17.647 9.412 17.647 9.412 18.692 0 17.654-9.412 17.654-9.412zm-17.831 7.479s-13.017.204-13.017-7.275c0 0 0-6.965 13.211-6.965 0 0 12.823-.415 12.823 6.965.002-.004.768 7.275-13.017 7.275zM35.808 5.971c.564 0 3.395.075 4.377.176.545.057-.18.544.225 1.316l7.465 10.35s1.28 2.106 2.577 2.16a3.716 3.716 0 001.736-.378 4.009 4.009 0 001.408-1.157l7.469-10.35c.783-1.186.661-2.075 1.207-2.117a14.02 14.02 0 011.543 0c2.73 0 0 3.02 0 3.02L54.41 21.06s-.788 1.937-4.163 1.937-4.167-1.931-4.167-1.931l-9.404-12.07s-2.294-3.098-.869-3.026z"/><path d="M78.215 5.971c-.562 0-3.394.075-4.377.176-.543.057.18.544-.224 1.316l-7.46 10.35s-1.278 2.106-2.577 2.16a3.714 3.714 0 01-1.734-.379 4.007 4.007 0 01-1.409-1.156l-7.472-10.35c-.783-1.186-.66-2.075-1.207-2.117a14.025 14.025 0 00-1.543 0c-2.727 0 0 3.02 0 3.02l9.404 12.07s.79 1.937 4.165 1.937 4.163-1.931 4.163-1.931l9.406-12.07s2.291-3.098.865-3.026zm57.657 11.701l.1-9.838s.054-1.422 0-2.24c-.025-.34-.998-.033-1.584.423-.611.48-2.125 1.075-1.781 2.895l.069 2.392-.104 11.654h1.584c.678 0 1.832.323 1.781-1.564l-.065-3.722zm-3.454-14.96v2.041c0 .658.645.507 1.584-.22.61-.48 1.683-1.145 1.75-2.148l.039-2.166s.118-.219-1.59-.197c-.702 0-1.832-.323-1.781 1.565l-.002 1.125z"/></g><defs><clipPath id="clip0_159_55"><path fill="#fff" d="M0 0h136v23H0z"/></clipPath></defs></svg>