<svg width="22" height="22" fill="none" xmlns="http://www.w3.org/2000/svg"><path d="M18.334 20.166H3.667a1.833 1.833 0 01-1.833-1.833V8.295c.03-.616.364-1.176.89-1.496l7.333-4.4a1.833 1.833 0 011.886 0l7.333 4.4c.551.332.89.928.891 1.572v9.962c0 1.013-.82 1.833-1.833 1.833zM3.667 9.046v9.287h14.667V9.045l-7.333 4.889-7.334-4.889zm7.334-5.075L4.874 7.647 11 11.73l6.126-4.084L11 3.97z" fill="#C39F7B"/><path fill-rule="evenodd" clip-rule="evenodd" d="M3.567 8.859l7.434 4.955 7.433-4.955v9.574H3.567V8.86zm7.434 5.075L3.667 9.045v9.288h14.667V9.045l-7.333 4.889zm0-10.08l6.313 3.788L11 11.852l-6.314-4.21L11 3.854zm-9.067 14.48c0 .956.776 1.732 1.733 1.732h14.667c.957 0 1.733-.776 1.733-1.733V8.371a1.743 1.743 0 00-.842-1.487l-7.333-4.4a1.733 1.733 0 00-1.783 0l-7.333 4.4a1.762 1.762 0 00-.842 1.413v10.036zm.79-11.535c-.526.32-.86.88-.89 1.496v10.038c0 1.013.82 1.833 1.833 1.833h14.667c1.012 0 1.833-.82 1.833-1.833V8.371a1.843 1.843 0 00-.89-1.572l-7.334-4.4a1.833 1.833 0 00-1.886 0l-7.333 4.4zm2.15.848L11 11.73l6.126-4.084L11 3.97 4.874 7.647z" fill="#fff"/></svg>